<svg xmlns="http://www.w3.org/2000/svg" viewBox="0 0 1200 630"><title>PULSO launch-card.svg — editable draft</title><desc>NOT AUDITED · DEVNET DEMONSTRATION ONLY. Campaign composition template.</desc><rect width="1200" height="630" fill="#F6F4EF"/><circle cx="948" cy="315" r="207" fill="#FFB020"/><g transform="translate(827 138) scale(1.0395)"><title>PULSO compact guardian mark — draft</title><desc>NOT AUDITED · DEVNET DEMONSTRATION ONLY. Compact frontal hood, negative-space mask, two eye lenses, long pointed beak. Draft.</desc><path fill="#14171A" d="M64 4 81 14 98 31l20 27-13 24-17 8-24 34-24-34-17-8L6 58l20-27 17-17L64 4Z"/><path fill="none" stroke="#FFB020" stroke-linecap="round" stroke-linejoin="round" stroke-width="4" d="M64 15 78 23l15 15 15 20-10 17-15 7-19 27-19-27-15-7-10-17 15-20 15-15 14-8Z"/><path fill="#F6F4EF" d="M42 42c5-8 13-12 22-12s17 4 22 12l-5 18-17 39-17-39-5-18Z"/><path fill="#14171A" d="m44 48 15-4-8 12-7-1v-7Zm40 0-15-4 8 12 7-1v-7Z"/></g><text x="84" y="94" font-family="Arial,sans-serif" font-size="24" font-weight="700" letter-spacing="5" fill="#14171A">PULSO</text><text x="84" y="277" font-family="Arial,sans-serif" font-size="44" font-weight="800" fill="#14171A">THE AGENT HOLDS THE WALLET.</text><text x="84" y="333" font-family="Arial,sans-serif" font-size="38" font-weight="700" fill="#14171A">THE HUMAN HOLDS THE AUTHORITY.</text><path d="M84 453h100" stroke="#FFB020" stroke-width="8" stroke-linecap="round"/><text x="84" y="598" font-family="Arial,sans-serif" font-size="16" fill="#14171A">NOT AUDITED · DEVNET DEMONSTRATION ONLY</text></svg>